<svg version="1.1"
     baseProfile="full"
     xmlns="http://www.w3.org/2000/svg"
>

    <symbol  id="search" viewBox="0 0 24 24" fill="none">
        <path fill-rule="evenodd" clip-rule="evenodd" d="M11.7385 2C17.1085 2 21.4765 6.368 21.4765 11.738C21.4765 14.2715 20.5042 16.5823 18.9132 18.3165L22.0439 21.4407C22.3369 21.7337 22.3379 22.2077 22.0449 22.5007C21.8989 22.6487 21.7059 22.7217 21.5139 22.7217C21.3229 22.7217 21.1309 22.6487 20.9839 22.5027L17.8154 19.343C16.1486 20.6778 14.0352 21.477 11.7385 21.477C6.36851 21.477 1.99951 17.108 1.99951 11.738C1.99951 6.368 6.36851 2 11.7385 2ZM11.7385 3.5C7.19551 3.5 3.49951 7.195 3.49951 11.738C3.49951 16.281 7.19551 19.977 11.7385 19.977C16.2805 19.977 19.9765 16.281 19.9765 11.738C19.9765 7.195 16.2805 3.5 11.7385 3.5Z" fill="#505C64"/>
    </symbol>

    <symbol id="download" viewBox="0 0 24 24" fill="none">
        <path fill-rule="evenodd" clip-rule="evenodd" d="M7.367 7.7325C7.781 7.7325 8.117 8.0685 8.117 8.4825C8.117 8.8965 7.781 9.2325 7.367 9.2325H6.426C4.812 9.2325 3.5 10.5435 3.5 12.1565V17.0415C3.5 18.6605 4.816 19.9765 6.435 19.9765H17.575C19.187 19.9765 20.5 18.6635 20.5 17.0515V12.1675C20.5 10.5485 19.183 9.2325 17.566 9.2325H16.634C16.22 9.2325 15.884 8.8965 15.884 8.4825C15.884 8.0685 16.22 7.7325 16.634 7.7325H17.566C20.011 7.7325 22 9.7225 22 12.1675V17.0515C22 19.4915 20.014 21.4765 17.575 21.4765H6.435C3.99 21.4765 2 19.4875 2 17.0415V12.1565C2 9.7165 3.985 7.7325 6.426 7.7325H7.367ZM12.0008 3C12.4148 3 12.7508 3.336 12.7508 3.75L12.75 13.976L14.3858 12.334C14.6778 12.04 15.1518 12.04 15.4458 12.332C15.7388 12.624 15.7398 13.099 15.4478 13.393L12.5385 16.3137C12.5101 16.3429 12.4794 16.3698 12.4466 16.3941L12.5318 16.32C12.4996 16.3527 12.4646 16.382 12.4275 16.4078C12.4048 16.4234 12.3818 16.4376 12.358 16.4506C12.3465 16.4568 12.3344 16.463 12.3222 16.4687C12.3004 16.4791 12.278 16.4885 12.2551 16.4967C12.2436 16.5008 12.2321 16.5046 12.2206 16.5081C12.1924 16.5169 12.1635 16.5239 12.1339 16.5292C12.1272 16.5303 12.1212 16.5313 12.1151 16.5323C12.0912 16.536 12.0663 16.5386 12.0411 16.5399C12.0275 16.5406 12.0142 16.541 12.0008 16.541L11.961 16.538L11.8991 16.5341C11.8947 16.5336 11.8903 16.5329 11.8859 16.5322L12.0008 16.541C11.9561 16.541 11.9118 16.537 11.8683 16.5292C11.8382 16.5239 11.8093 16.5169 11.7811 16.5083C11.7699 16.5047 11.7588 16.5011 11.7478 16.4971C11.7249 16.489 11.7022 16.4796 11.6801 16.4691C11.6666 16.4627 11.6533 16.4559 11.6401 16.4487C11.6217 16.4385 11.6039 16.4277 11.5866 16.4162C11.5747 16.4084 11.5629 16.4 11.5512 16.3913C11.5227 16.3698 11.4957 16.3464 11.4705 16.3212L11.4698 16.32L8.5538 13.393C8.2618 13.099 8.2628 12.624 8.5558 12.332C8.8498 12.04 9.3238 12.04 9.6158 12.334L11.25 13.976L11.2508 3.75C11.2508 3.336 11.5868 3 12.0008 3Z" fill="white"/>
    </symbol>

    <symbol id="tg" viewBox="0 0 30 30" fill="none">
        <circle cx="15" cy="15" r="14.5" stroke="white"/>
        <path d="M7.94598 14.9621L10.9844 16.0951L12.1689 19.906C12.2204 20.1635 12.5294 20.215 12.7354 20.0605L14.4348 18.67C14.5893 18.5155 14.8468 18.5155 15.0528 18.67L18.0912 20.8844C18.2972 21.0389 18.6062 20.9359 18.6577 20.6785L20.9237 9.86371C20.9752 9.60621 20.7177 9.34872 20.4602 9.45172L7.94598 14.2926C7.63699 14.3956 7.63699 14.8591 7.94598 14.9621ZM12.0144 15.5286L17.9882 11.8722C18.0912 11.8207 18.1942 11.9752 18.0912 12.0267L13.1989 16.6101C13.0444 16.7645 12.8899 16.9705 12.8899 17.228L12.7354 18.464C12.7354 18.6185 12.4779 18.67 12.4264 18.464L11.8084 16.1981C11.6539 15.9406 11.7569 15.6316 12.0144 15.5286Z" fill="white"/>
    </symbol>

    <symbol id="fb" viewBox="0 0 30 30" fill="none">
        <circle cx="15" cy="15" r="14.5" stroke="white"/>
        <path d="M21.4286 11.4181C21.4286 10.3611 20.4959 9.42847 19.439 9.42847H11.4182C10.3612 9.42847 9.42859 10.3611 9.42859 11.4181V19.4388C9.42859 20.4958 10.3612 21.4285 11.4182 21.4285H15.4597V16.8896H13.9675V14.9H15.4597V14.0917C15.4597 12.7238 16.4545 11.5425 17.698 11.5425H19.3146V13.5321H17.698C17.5115 13.5321 17.325 13.7186 17.325 14.0917V14.9H19.3146V16.8896H17.325V21.4285H19.439C20.4959 21.4285 21.4286 20.4958 21.4286 19.4388V11.4181Z" fill="white"/>
    </symbol>

    <symbol id="twitter" viewBox="0 0 30 30" fill="none">
        <circle cx="15" cy="15" r="14.5" stroke="white"/>
        <path d="M22.95 11.175C22.425 11.4 21.825 11.55 21.225 11.625C21.825 11.25 22.35 10.65 22.575 9.975C21.975 10.35 21.375 10.575 20.625 10.725C20.1 10.125 19.275 9.75 18.45 9.75C16.8 9.75 15.45 11.1 15.45 12.75C15.45 12.975 15.45 13.2 15.525 13.425C13.05 13.275 10.8 12.075 9.3 10.275C9.075 10.725 8.925 11.25 8.925 11.775C8.925 12.825 9.45 13.725 10.275 14.25C9.75 14.25 9.3 14.1 8.925 13.875C8.925 15.3 9.97499 16.575 11.325 16.8C11.1 16.875 10.8 16.875 10.5 16.875C10.275 16.875 10.125 16.875 9.9 16.8C10.275 18 11.4 18.9 12.75 18.9C11.7 19.725 10.425 20.175 9 20.175C8.775 20.175 8.55 20.175 8.25 20.1C9.6 20.925 11.175 21.45 12.9 21.45C18.45 21.45 21.45 16.875 21.45 12.9V12.525C22.05 12.3 22.575 11.775 22.95 11.175Z" fill="white"/>
    </symbol>

    <symbol id="vk" viewBox="0 0 30 30" fill="none">
        <circle cx="15" cy="15" r="14.5" stroke="white"/>
        <path d="M22.3552 18.8364C22.3552 18.7742 22.293 18.7742 22.293 18.7119C22.0439 18.2138 21.4835 17.5911 20.7363 16.9062C20.3627 16.5948 20.1759 16.3458 20.0514 16.2212C19.8645 15.9722 19.8646 15.7854 19.9268 15.5363C19.9891 15.3495 20.2382 15.0381 20.674 14.4777C20.9231 14.1664 21.0476 13.9796 21.2344 13.7928C22.1684 12.5475 22.6043 11.738 22.4798 11.3644L22.4175 11.3021C22.3552 11.2398 22.293 11.1776 22.1684 11.1776C22.0439 11.1153 21.8571 11.1153 21.6703 11.1776H19.3042C19.2419 11.1776 19.2419 11.1776 19.1173 11.1776C19.0551 11.1776 18.9928 11.1776 18.9928 11.1776H18.9305H18.8683L18.806 11.2398C18.7437 11.3021 18.7437 11.3021 18.7437 11.3644C18.4947 12.0493 18.1833 12.6097 17.872 13.2324C17.6852 13.5437 17.4984 13.8551 17.3116 14.1041C17.1248 14.3532 17.0003 14.54 16.8757 14.6645C16.7512 14.7891 16.6267 14.8513 16.5644 14.9759C16.5021 15.0381 16.3776 15.1004 16.3776 15.0381C16.3153 15.0381 16.253 15.0381 16.253 14.9759C16.1908 14.9136 16.1285 14.8513 16.0663 14.7891C16.004 14.7268 16.004 14.6023 15.9417 14.4777C15.9417 14.3532 15.9417 14.2287 15.9417 14.1664C15.9417 14.1041 15.9417 13.9173 15.9417 13.7928C15.9417 13.606 15.9417 13.4815 15.9417 13.4192C15.9417 13.2324 15.9417 12.9833 15.9417 12.7343C15.9417 12.4852 15.9417 12.2984 15.9417 12.1739C15.9417 12.0493 15.9417 11.8625 15.9417 11.738C15.9417 11.5512 15.9417 11.4266 15.9417 11.3644C15.9417 11.3021 15.8795 11.1776 15.8795 11.1153C15.8172 11.053 15.7549 10.9908 15.6926 10.9285C15.6304 10.8662 15.5058 10.8662 15.4436 10.804C15.1322 10.7417 14.7587 10.6794 14.3228 10.6794C13.3265 10.6794 12.6416 10.7417 12.3925 10.8662C12.268 10.9285 12.1434 10.9908 12.0812 11.1153C11.9566 11.2398 11.9566 11.3021 12.0189 11.3021C12.3302 11.3644 12.5793 11.4889 12.7038 11.6757L12.7661 11.8003C12.8284 11.8625 12.8284 11.9871 12.8906 12.1739C12.9529 12.3607 12.9529 12.5475 12.9529 12.7965C12.9529 13.1701 12.9529 13.5437 12.9529 13.7928C12.9529 14.1041 12.8906 14.2909 12.8906 14.4777C12.8906 14.6645 12.8284 14.7891 12.7661 14.8513C12.7038 14.9759 12.7038 15.0381 12.6416 15.0381C12.6416 15.0381 12.6416 15.1004 12.5793 15.1004C12.517 15.1004 12.4548 15.1627 12.3302 15.1627C12.268 15.1627 12.1434 15.1004 12.0812 15.0381C11.9566 14.9759 11.8321 14.8513 11.7698 14.7268C11.6453 14.6023 11.5207 14.4155 11.3962 14.1664C11.2717 13.9173 11.0849 13.6683 10.9603 13.2947L10.8358 13.0456C10.7735 12.9211 10.649 12.672 10.5245 12.3607C10.3999 12.0493 10.2754 11.8003 10.1509 11.4889C10.0886 11.3644 10.0263 11.3021 9.96408 11.2398H9.90181C9.90181 11.2398 9.83953 11.1776 9.77726 11.1776C9.715 11.1776 9.65274 11.1153 9.59047 11.1153H7.34885C7.09978 11.1153 6.97525 11.1776 6.91298 11.2398L6.85071 11.3021C6.85071 11.3021 6.85071 11.3644 6.85071 11.4266C6.85071 11.4889 6.85071 11.5512 6.91298 11.6757C7.22431 12.4229 7.59792 13.1701 7.97152 13.9173C8.34512 14.6023 8.71873 15.2249 8.9678 15.6608C9.27913 16.0967 9.5282 16.5326 9.83954 16.9062C10.1509 17.2798 10.3377 17.5288 10.3999 17.6534C10.5245 17.7779 10.5867 17.8402 10.649 17.9024L10.8358 18.0892C10.9603 18.2138 11.1471 18.4006 11.3962 18.5874C11.6453 18.7742 11.9566 18.961 12.268 19.1478C12.5793 19.3346 12.9529 19.4591 13.3265 19.5837C13.7624 19.7082 14.136 19.7705 14.5096 19.7082H15.4436C15.6304 19.7082 15.7549 19.6459 15.8795 19.5214L15.9417 19.4591C15.9417 19.3968 16.004 19.3968 16.004 19.3346C16.004 19.2723 16.004 19.21 16.004 19.0855C16.004 18.8364 16.004 18.6496 16.0663 18.4628C16.1285 18.276 16.1285 18.1515 16.1908 18.027C16.2531 17.9024 16.3153 17.8402 16.3776 17.7779C16.4399 17.7156 16.5021 17.6534 16.5021 17.6534H16.5644C16.6889 17.5911 16.8757 17.6534 17.0003 17.7779C17.1871 17.9024 17.3739 18.0892 17.4984 18.276C17.6229 18.4628 17.8097 18.6496 18.0588 18.8987C18.3079 19.1478 18.4947 19.3346 18.6192 19.3968L18.806 19.5214C18.9305 19.5836 19.0551 19.6459 19.2419 19.7082C19.4287 19.7705 19.5532 19.7704 19.6777 19.7704L21.7948 19.7082C21.9816 19.7082 22.1684 19.6459 22.293 19.5837C22.4175 19.5214 22.4798 19.4591 22.4798 19.3346C22.4798 19.2723 22.4798 19.1478 22.4798 19.0855C22.3552 18.961 22.3552 18.8987 22.3552 18.8364Z" fill="white"/>
    </symbol>

    <symbol id="mail" viewBox="0 0 24 24" fill="none">
        <path fill-rule="evenodd" clip-rule="evenodd" d="M16.659 2C19.989 2 22.5 4.717 22.5 8.32V15.188C22.5 17.032 21.848 18.698 20.663 19.88C19.6 20.939 18.221 21.5 16.675 21.5H6.822C5.279 21.5 3.901 20.94 2.837 19.88C1.652 18.698 1 17.032 1 15.188V8.32C1 4.717 3.511 2 6.841 2H16.659ZM16.659 3.5H6.841C4.326 3.5 2.5 5.527 2.5 8.32V15.188C2.5 16.631 2.996 17.92 3.896 18.817C4.672 19.592 5.685 20 6.825 20H16.659C16.661 19.998 16.669 20 16.675 20C17.816 20 18.828 19.592 19.604 18.817C20.505 17.92 21 16.631 21 15.188V8.32C21 5.527 19.174 3.5 16.659 3.5ZM18.235 8.1288C18.496 8.4498 18.447 8.9218 18.126 9.1838L13.682 12.7958C13.12 13.2418 12.448 13.4648 11.777 13.4648C11.108 13.4648 10.441 13.2438 9.883 12.8018L5.398 9.1858C5.075 8.9258 5.025 8.4528 5.284 8.1308C5.545 7.8098 6.017 7.7588 6.339 8.0178L10.82 11.6298C11.383 12.0758 12.176 12.0758 12.743 11.6258L17.179 8.0198C17.501 7.7568 17.973 7.8068 18.235 8.1288Z" fill="#E0E0E0"/>
    </symbol>
</svg>
