<svg version="1.1"
     baseProfile="full"
     xmlns="http://www.w3.org/2000/svg"
>

    <symbol  id="search" viewBox="0 0 24 24">
        <path fill-rule="evenodd" clip-rule="evenodd" d="M11.7385 2C17.1085 2 21.4765 6.368 21.4765 11.738C21.4765 14.2715 20.5042 16.5823 18.9132 18.3165L22.0439 21.4407C22.3369 21.7337 22.3379 22.2077 22.0449 22.5007C21.8989 22.6487 21.7059 22.7217 21.5139 22.7217C21.3229 22.7217 21.1309 22.6487 20.9839 22.5027L17.8154 19.343C16.1486 20.6778 14.0352 21.477 11.7385 21.477C6.36851 21.477 1.99951 17.108 1.99951 11.738C1.99951 6.368 6.36851 2 11.7385 2ZM11.7385 3.5C7.19551 3.5 3.49951 7.195 3.49951 11.738C3.49951 16.281 7.19551 19.977 11.7385 19.977C16.2805 19.977 19.9765 16.281 19.9765 11.738C19.9765 7.195 16.2805 3.5 11.7385 3.5Z"/>
    </symbol>

    <symbol id="download" viewBox="0 0 24 24" fill="none">
        <path fill-rule="evenodd" clip-rule="evenodd" d="M7.367 7.7325C7.781 7.7325 8.117 8.0685 8.117 8.4825C8.117 8.8965 7.781 9.2325 7.367 9.2325H6.426C4.812 9.2325 3.5 10.5435 3.5 12.1565V17.0415C3.5 18.6605 4.816 19.9765 6.435 19.9765H17.575C19.187 19.9765 20.5 18.6635 20.5 17.0515V12.1675C20.5 10.5485 19.183 9.2325 17.566 9.2325H16.634C16.22 9.2325 15.884 8.8965 15.884 8.4825C15.884 8.0685 16.22 7.7325 16.634 7.7325H17.566C20.011 7.7325 22 9.7225 22 12.1675V17.0515C22 19.4915 20.014 21.4765 17.575 21.4765H6.435C3.99 21.4765 2 19.4875 2 17.0415V12.1565C2 9.7165 3.985 7.7325 6.426 7.7325H7.367ZM12.0008 3C12.4148 3 12.7508 3.336 12.7508 3.75L12.75 13.976L14.3858 12.334C14.6778 12.04 15.1518 12.04 15.4458 12.332C15.7388 12.624 15.7398 13.099 15.4478 13.393L12.5385 16.3137C12.5101 16.3429 12.4794 16.3698 12.4466 16.3941L12.5318 16.32C12.4996 16.3527 12.4646 16.382 12.4275 16.4078C12.4048 16.4234 12.3818 16.4376 12.358 16.4506C12.3465 16.4568 12.3344 16.463 12.3222 16.4687C12.3004 16.4791 12.278 16.4885 12.2551 16.4967C12.2436 16.5008 12.2321 16.5046 12.2206 16.5081C12.1924 16.5169 12.1635 16.5239 12.1339 16.5292C12.1272 16.5303 12.1212 16.5313 12.1151 16.5323C12.0912 16.536 12.0663 16.5386 12.0411 16.5399C12.0275 16.5406 12.0142 16.541 12.0008 16.541L11.961 16.538L11.8991 16.5341C11.8947 16.5336 11.8903 16.5329 11.8859 16.5322L12.0008 16.541C11.9561 16.541 11.9118 16.537 11.8683 16.5292C11.8382 16.5239 11.8093 16.5169 11.7811 16.5083C11.7699 16.5047 11.7588 16.5011 11.7478 16.4971C11.7249 16.489 11.7022 16.4796 11.6801 16.4691C11.6666 16.4627 11.6533 16.4559 11.6401 16.4487C11.6217 16.4385 11.6039 16.4277 11.5866 16.4162C11.5747 16.4084 11.5629 16.4 11.5512 16.3913C11.5227 16.3698 11.4957 16.3464 11.4705 16.3212L11.4698 16.32L8.5538 13.393C8.2618 13.099 8.2628 12.624 8.5558 12.332C8.8498 12.04 9.3238 12.04 9.6158 12.334L11.25 13.976L11.2508 3.75C11.2508 3.336 11.5868 3 12.0008 3Z" fill="white"/>
    </symbol>

    <symbol id="tg" viewBox="0 0 30 30" fill="none">
        <circle cx="15" cy="15" r="14.5" stroke="white"/>
        <path d="M7.94598 14.9621L10.9844 16.0951L12.1689 19.906C12.2204 20.1635 12.5294 20.215 12.7354 20.0605L14.4348 18.67C14.5893 18.5155 14.8468 18.5155 15.0528 18.67L18.0912 20.8844C18.2972 21.0389 18.6062 20.9359 18.6577 20.6785L20.9237 9.86371C20.9752 9.60621 20.7177 9.34872 20.4602 9.45172L7.94598 14.2926C7.63699 14.3956 7.63699 14.8591 7.94598 14.9621ZM12.0144 15.5286L17.9882 11.8722C18.0912 11.8207 18.1942 11.9752 18.0912 12.0267L13.1989 16.6101C13.0444 16.7645 12.8899 16.9705 12.8899 17.228L12.7354 18.464C12.7354 18.6185 12.4779 18.67 12.4264 18.464L11.8084 16.1981C11.6539 15.9406 11.7569 15.6316 12.0144 15.5286Z" fill="white"/>
    </symbol>

    <symbol id="fb" viewBox="0 0 30 30" fill="none">
        <circle cx="15" cy="15" r="14.5" stroke="white"/>
        <path d="M21.4286 11.4181C21.4286 10.3611 20.4959 9.42847 19.439 9.42847H11.4182C10.3612 9.42847 9.42859 10.3611 9.42859 11.4181V19.4388C9.42859 20.4958 10.3612 21.4285 11.4182 21.4285H15.4597V16.8896H13.9675V14.9H15.4597V14.0917C15.4597 12.7238 16.4545 11.5425 17.698 11.5425H19.3146V13.5321H17.698C17.5115 13.5321 17.325 13.7186 17.325 14.0917V14.9H19.3146V16.8896H17.325V21.4285H19.439C20.4959 21.4285 21.4286 20.4958 21.4286 19.4388V11.4181Z" fill="white"/>
    </symbol>

    <symbol id="twitter" viewBox="0 0 30 30" fill="none">
        <circle cx="15" cy="15" r="14.5" stroke="white"/>
        <path d="M22.95 11.175C22.425 11.4 21.825 11.55 21.225 11.625C21.825 11.25 22.35 10.65 22.575 9.975C21.975 10.35 21.375 10.575 20.625 10.725C20.1 10.125 19.275 9.75 18.45 9.75C16.8 9.75 15.45 11.1 15.45 12.75C15.45 12.975 15.45 13.2 15.525 13.425C13.05 13.275 10.8 12.075 9.3 10.275C9.075 10.725 8.925 11.25 8.925 11.775C8.925 12.825 9.45 13.725 10.275 14.25C9.75 14.25 9.3 14.1 8.925 13.875C8.925 15.3 9.97499 16.575 11.325 16.8C11.1 16.875 10.8 16.875 10.5 16.875C10.275 16.875 10.125 16.875 9.9 16.8C10.275 18 11.4 18.9 12.75 18.9C11.7 19.725 10.425 20.175 9 20.175C8.775 20.175 8.55 20.175 8.25 20.1C9.6 20.925 11.175 21.45 12.9 21.45C18.45 21.45 21.45 16.875 21.45 12.9V12.525C22.05 12.3 22.575 11.775 22.95 11.175Z" fill="white"/>
    </symbol>

    <symbol id="vk" viewBox="0 0 30 30" fill="none">
        <circle cx="15" cy="15" r="14.5" stroke="white"/>
        <path d="M22.3552 18.8364C22.3552 18.7742 22.293 18.7742 22.293 18.7119C22.0439 18.2138 21.4835 17.5911 20.7363 16.9062C20.3627 16.5948 20.1759 16.3458 20.0514 16.2212C19.8645 15.9722 19.8646 15.7854 19.9268 15.5363C19.9891 15.3495 20.2382 15.0381 20.674 14.4777C20.9231 14.1664 21.0476 13.9796 21.2344 13.7928C22.1684 12.5475 22.6043 11.738 22.4798 11.3644L22.4175 11.3021C22.3552 11.2398 22.293 11.1776 22.1684 11.1776C22.0439 11.1153 21.8571 11.1153 21.6703 11.1776H19.3042C19.2419 11.1776 19.2419 11.1776 19.1173 11.1776C19.0551 11.1776 18.9928 11.1776 18.9928 11.1776H18.9305H18.8683L18.806 11.2398C18.7437 11.3021 18.7437 11.3021 18.7437 11.3644C18.4947 12.0493 18.1833 12.6097 17.872 13.2324C17.6852 13.5437 17.4984 13.8551 17.3116 14.1041C17.1248 14.3532 17.0003 14.54 16.8757 14.6645C16.7512 14.7891 16.6267 14.8513 16.5644 14.9759C16.5021 15.0381 16.3776 15.1004 16.3776 15.0381C16.3153 15.0381 16.253 15.0381 16.253 14.9759C16.1908 14.9136 16.1285 14.8513 16.0663 14.7891C16.004 14.7268 16.004 14.6023 15.9417 14.4777C15.9417 14.3532 15.9417 14.2287 15.9417 14.1664C15.9417 14.1041 15.9417 13.9173 15.9417 13.7928C15.9417 13.606 15.9417 13.4815 15.9417 13.4192C15.9417 13.2324 15.9417 12.9833 15.9417 12.7343C15.9417 12.4852 15.9417 12.2984 15.9417 12.1739C15.9417 12.0493 15.9417 11.8625 15.9417 11.738C15.9417 11.5512 15.9417 11.4266 15.9417 11.3644C15.9417 11.3021 15.8795 11.1776 15.8795 11.1153C15.8172 11.053 15.7549 10.9908 15.6926 10.9285C15.6304 10.8662 15.5058 10.8662 15.4436 10.804C15.1322 10.7417 14.7587 10.6794 14.3228 10.6794C13.3265 10.6794 12.6416 10.7417 12.3925 10.8662C12.268 10.9285 12.1434 10.9908 12.0812 11.1153C11.9566 11.2398 11.9566 11.3021 12.0189 11.3021C12.3302 11.3644 12.5793 11.4889 12.7038 11.6757L12.7661 11.8003C12.8284 11.8625 12.8284 11.9871 12.8906 12.1739C12.9529 12.3607 12.9529 12.5475 12.9529 12.7965C12.9529 13.1701 12.9529 13.5437 12.9529 13.7928C12.9529 14.1041 12.8906 14.2909 12.8906 14.4777C12.8906 14.6645 12.8284 14.7891 12.7661 14.8513C12.7038 14.9759 12.7038 15.0381 12.6416 15.0381C12.6416 15.0381 12.6416 15.1004 12.5793 15.1004C12.517 15.1004 12.4548 15.1627 12.3302 15.1627C12.268 15.1627 12.1434 15.1004 12.0812 15.0381C11.9566 14.9759 11.8321 14.8513 11.7698 14.7268C11.6453 14.6023 11.5207 14.4155 11.3962 14.1664C11.2717 13.9173 11.0849 13.6683 10.9603 13.2947L10.8358 13.0456C10.7735 12.9211 10.649 12.672 10.5245 12.3607C10.3999 12.0493 10.2754 11.8003 10.1509 11.4889C10.0886 11.3644 10.0263 11.3021 9.96408 11.2398H9.90181C9.90181 11.2398 9.83953 11.1776 9.77726 11.1776C9.715 11.1776 9.65274 11.1153 9.59047 11.1153H7.34885C7.09978 11.1153 6.97525 11.1776 6.91298 11.2398L6.85071 11.3021C6.85071 11.3021 6.85071 11.3644 6.85071 11.4266C6.85071 11.4889 6.85071 11.5512 6.91298 11.6757C7.22431 12.4229 7.59792 13.1701 7.97152 13.9173C8.34512 14.6023 8.71873 15.2249 8.9678 15.6608C9.27913 16.0967 9.5282 16.5326 9.83954 16.9062C10.1509 17.2798 10.3377 17.5288 10.3999 17.6534C10.5245 17.7779 10.5867 17.8402 10.649 17.9024L10.8358 18.0892C10.9603 18.2138 11.1471 18.4006 11.3962 18.5874C11.6453 18.7742 11.9566 18.961 12.268 19.1478C12.5793 19.3346 12.9529 19.4591 13.3265 19.5837C13.7624 19.7082 14.136 19.7705 14.5096 19.7082H15.4436C15.6304 19.7082 15.7549 19.6459 15.8795 19.5214L15.9417 19.4591C15.9417 19.3968 16.004 19.3968 16.004 19.3346C16.004 19.2723 16.004 19.21 16.004 19.0855C16.004 18.8364 16.004 18.6496 16.0663 18.4628C16.1285 18.276 16.1285 18.1515 16.1908 18.027C16.2531 17.9024 16.3153 17.8402 16.3776 17.7779C16.4399 17.7156 16.5021 17.6534 16.5021 17.6534H16.5644C16.6889 17.5911 16.8757 17.6534 17.0003 17.7779C17.1871 17.9024 17.3739 18.0892 17.4984 18.276C17.6229 18.4628 17.8097 18.6496 18.0588 18.8987C18.3079 19.1478 18.4947 19.3346 18.6192 19.3968L18.806 19.5214C18.9305 19.5836 19.0551 19.6459 19.2419 19.7082C19.4287 19.7705 19.5532 19.7704 19.6777 19.7704L21.7948 19.7082C21.9816 19.7082 22.1684 19.6459 22.293 19.5837C22.4175 19.5214 22.4798 19.4591 22.4798 19.3346C22.4798 19.2723 22.4798 19.1478 22.4798 19.0855C22.3552 18.961 22.3552 18.8987 22.3552 18.8364Z" fill="white"/>
    </symbol>

    <symbol id="mail" viewBox="0 0 24 24">
        <path fill-rule="evenodd" clip-rule="evenodd" d="M16.659 2C19.989 2 22.5 4.717 22.5 8.32V15.188C22.5 17.032 21.848 18.698 20.663 19.88C19.6 20.939 18.221 21.5 16.675 21.5H6.822C5.279 21.5 3.901 20.94 2.837 19.88C1.652 18.698 1 17.032 1 15.188V8.32C1 4.717 3.511 2 6.841 2H16.659ZM16.659 3.5H6.841C4.326 3.5 2.5 5.527 2.5 8.32V15.188C2.5 16.631 2.996 17.92 3.896 18.817C4.672 19.592 5.685 20 6.825 20H16.659C16.661 19.998 16.669 20 16.675 20C17.816 20 18.828 19.592 19.604 18.817C20.505 17.92 21 16.631 21 15.188V8.32C21 5.527 19.174 3.5 16.659 3.5ZM18.235 8.1288C18.496 8.4498 18.447 8.9218 18.126 9.1838L13.682 12.7958C13.12 13.2418 12.448 13.4648 11.777 13.4648C11.108 13.4648 10.441 13.2438 9.883 12.8018L5.398 9.1858C5.075 8.9258 5.025 8.4528 5.284 8.1308C5.545 7.8098 6.017 7.7588 6.339 8.0178L10.82 11.6298C11.383 12.0758 12.176 12.0758 12.743 11.6258L17.179 8.0198C17.501 7.7568 17.973 7.8068 18.235 8.1288Z"/>
    </symbol>

    <symbol id="arrow-down" viewBox="0 0 20 20" fill="none">
        <path d="M3.72603 6.64131C3.94792 6.41942 4.29514 6.39925 4.53981 6.5808L4.60991 6.64131L10.0013 12.0324L15.3927 6.64131C15.6146 6.41942 15.9618 6.39925 16.2065 6.5808L16.2766 6.64131C16.4985 6.8632 16.5186 7.21042 16.3371 7.45509L16.2766 7.52519L10.4432 13.3585C10.2214 13.5804 9.87414 13.6006 9.62946 13.419L9.55936 13.3585L3.72603 7.52519C3.48195 7.28112 3.48195 6.88539 3.72603 6.64131Z" fill="#BDBDBD"/>
    </symbol>

    <symbol id="search-2" viewBox="0 0 24 24" fill="none">
        <path d="M21.8122 20.912L16.6485 15.8308C18.0007 14.3617 18.8316 12.4187 18.8316 10.2807C18.8309 5.7071 15.0638 2 10.4164 2C5.76909 2 2.00195 5.7071 2.00195 10.2807C2.00195 14.8543 5.76909 18.5614 10.4164 18.5614C12.4244 18.5614 14.2661 17.8669 15.7127 16.7122L20.8964 21.8134C21.149 22.0622 21.5591 22.0622 21.8116 21.8134C22.0648 21.5646 22.0648 21.1608 21.8122 20.912ZM10.4164 17.2874C6.48428 17.2874 3.29664 14.1504 3.29664 10.2807C3.29664 6.41102 6.48428 3.27403 10.4164 3.27403C14.3486 3.27403 17.5362 6.41102 17.5362 10.2807C17.5362 14.1504 14.3486 17.2874 10.4164 17.2874Z" fill="white"/>
    </symbol>

    <symbol id="twitter-2" viewBox="0 0 30 30">
        <circle cx="15" cy="15" r="15" fill="#BF927A"/>
        <path d="M22.95 11.175C22.425 11.4 21.825 11.55 21.225 11.625C21.825 11.25 22.35 10.65 22.575 9.975C21.975 10.35 21.375 10.575 20.625 10.725C20.1 10.125 19.275 9.75 18.45 9.75C16.8 9.75 15.45 11.1 15.45 12.75C15.45 12.975 15.45 13.2 15.525 13.425C13.05 13.275 10.8 12.075 9.3 10.275C9.075 10.725 8.925 11.25 8.925 11.775C8.925 12.825 9.45 13.725 10.275 14.25C9.75 14.25 9.3 14.1 8.925 13.875C8.925 15.3 9.97499 16.575 11.325 16.8C11.1 16.875 10.8 16.875 10.5 16.875C10.275 16.875 10.125 16.875 9.9 16.8C10.275 18 11.4 18.9 12.75 18.9C11.7 19.725 10.425 20.175 9 20.175C8.775 20.175 8.55 20.175 8.25 20.1C9.6 20.925 11.175 21.45 12.9 21.45C18.45 21.45 21.45 16.875 21.45 12.9V12.525C22.05 12.3 22.575 11.775 22.95 11.175Z" fill="white"/>
    </symbol>

    <symbol id="fb-2" viewBox="0 0 30 30">
        <circle cx="15" cy="15" r="15" fill="#BF927A"/>
        <path d="M21.75 10.364C21.75 9.24093 20.7591 8.25 19.636 8.25H11.114C9.99093 8.25 9 9.24093 9 10.364V18.886C9 20.0091 9.99093 21 11.114 21H15.408V16.1775H13.8225V14.0635H15.408V13.2047C15.408 11.7513 16.465 10.4961 17.7863 10.4961H19.5039V12.6101H17.7863C17.5881 12.6101 17.3899 12.8083 17.3899 13.2047V14.0635H19.5039V16.1775H17.3899V21H19.636C20.7591 21 21.75 20.0091 21.75 18.886V10.364Z" fill="white"/>
    </symbol>

    <symbol id="vk-2" viewBox="0 0 30 30">
        <circle cx="15" cy="15" r="15" fill="#BF927A"/>
        <path d="M22.3551 18.8362C22.3551 18.7739 22.2929 18.7739 22.2929 18.7117C22.0438 18.2135 21.4834 17.5909 20.7362 16.9059C20.3626 16.5946 20.1758 16.3455 20.0512 16.221C19.8644 15.9719 19.8644 15.7851 19.9267 15.536C19.989 15.3492 20.238 15.0379 20.6739 14.4775C20.923 14.1662 21.0475 13.9794 21.2343 13.7926C22.1683 12.5472 22.6042 11.7377 22.4796 11.3641L22.4174 11.3019C22.3551 11.2396 22.2928 11.1773 22.1683 11.1773C22.0438 11.1151 21.857 11.1151 21.6702 11.1773H19.304C19.2418 11.1773 19.2418 11.1773 19.1172 11.1773C19.055 11.1773 18.9927 11.1773 18.9927 11.1773H18.9304H18.8682L18.8059 11.2396C18.7436 11.3019 18.7436 11.3019 18.7436 11.3641C18.4945 12.0491 18.1832 12.6095 17.8719 13.2321C17.6851 13.5435 17.4983 13.8548 17.3115 14.1039C17.1247 14.353 17.0001 14.5398 16.8756 14.6643C16.7511 14.7888 16.6265 14.8511 16.5643 14.9756C16.502 15.0379 16.3775 15.1002 16.3775 15.0379C16.3152 15.0379 16.2529 15.0379 16.2529 14.9756C16.1907 14.9134 16.1284 14.8511 16.0661 14.7888C16.0039 14.7266 16.0039 14.602 15.9416 14.4775C15.9416 14.353 15.9416 14.2284 15.9416 14.1662C15.9416 14.1039 15.9416 13.9171 15.9416 13.7926C15.9416 13.6058 15.9416 13.4812 15.9416 13.419C15.9416 13.2322 15.9416 12.9831 15.9416 12.734C15.9416 12.4849 15.9416 12.2981 15.9416 12.1736C15.9416 12.0491 15.9416 11.8623 15.9416 11.7377C15.9416 11.5509 15.9416 11.4264 15.9416 11.3641C15.9416 11.3019 15.8793 11.1773 15.8793 11.1151C15.8171 11.0528 15.7548 10.9905 15.6925 10.9283C15.6303 10.866 15.5057 10.866 15.4435 10.8037C15.1321 10.7415 14.7585 10.6792 14.3227 10.6792C13.3264 10.6792 12.6414 10.7415 12.3924 10.866C12.2678 10.9283 12.1433 10.9905 12.081 11.1151C11.9565 11.2396 11.9565 11.3019 12.0188 11.3019C12.3301 11.3641 12.5792 11.4887 12.7037 11.6755L12.766 11.8C12.8282 11.8623 12.8282 11.9868 12.8905 12.1736C12.9528 12.3604 12.9528 12.5472 12.9528 12.7963C12.9528 13.1699 12.9528 13.5435 12.9528 13.7926C12.9528 14.1039 12.8905 14.2907 12.8905 14.4775C12.8905 14.6643 12.8282 14.7888 12.766 14.8511C12.7037 14.9756 12.7037 15.0379 12.6414 15.0379C12.6414 15.0379 12.6414 15.1002 12.5792 15.1002C12.5169 15.1002 12.4546 15.1624 12.3301 15.1624C12.2678 15.1624 12.1433 15.1002 12.081 15.0379C11.9565 14.9756 11.832 14.8511 11.7697 14.7266C11.6452 14.602 11.5206 14.4152 11.3961 14.1662C11.2716 13.9171 11.0847 13.668 10.9602 13.2944L10.8357 13.0454C10.7734 12.9208 10.6489 12.6717 10.5244 12.3604C10.3998 12.0491 10.2753 11.8 10.1507 11.4887C10.0885 11.3641 10.0262 11.3019 9.96396 11.2396H9.90168C9.90168 11.2396 9.83941 11.1773 9.77714 11.1773C9.71487 11.1773 9.65262 11.1151 9.59035 11.1151H7.34873C7.09966 11.1151 6.97512 11.1773 6.91286 11.2396L6.85059 11.3019C6.85059 11.3019 6.85059 11.3641 6.85059 11.4264C6.85059 11.4887 6.85059 11.5509 6.91286 11.6755C7.22419 12.4227 7.59779 13.1699 7.9714 13.9171C8.345 14.602 8.71861 15.2247 8.96768 15.6606C9.27901 16.0964 9.52808 16.5323 9.83941 16.9059C10.1507 17.2795 10.3375 17.5286 10.3998 17.6531C10.5243 17.7777 10.5866 17.8399 10.6489 17.9022L10.8357 18.089C10.9602 18.2135 11.147 18.4003 11.3961 18.5871C11.6452 18.7739 11.9565 18.9607 12.2678 19.1475C12.5792 19.3343 12.9528 19.4589 13.3264 19.5834C13.7623 19.7079 14.1358 19.7702 14.5095 19.7079H15.4435C15.6303 19.7079 15.7548 19.6457 15.8793 19.5211L15.9416 19.4589C15.9416 19.3966 16.0039 19.3966 16.0039 19.3343C16.0039 19.2721 16.0039 19.2098 16.0039 19.0853C16.0039 18.8362 16.0039 18.6494 16.0661 18.4626C16.1284 18.2758 16.1284 18.1513 16.1907 18.0267C16.2529 17.9022 16.3152 17.8399 16.3775 17.7777C16.4397 17.7154 16.502 17.6531 16.502 17.6531H16.5643C16.6888 17.5909 16.8756 17.6531 17.0001 17.7777C17.1869 17.9022 17.3737 18.089 17.4983 18.2758C17.6228 18.4626 17.8096 18.6494 18.0587 18.8985C18.3078 19.1475 18.4946 19.3343 18.6191 19.3966L18.8059 19.5211C18.9304 19.5834 19.055 19.6457 19.2418 19.7079C19.4286 19.7702 19.5531 19.7702 19.6776 19.7702L21.7947 19.7079C21.9815 19.7079 22.1683 19.6457 22.2929 19.5834C22.4174 19.5211 22.4796 19.4589 22.4796 19.3343C22.4796 19.2721 22.4796 19.1475 22.4796 19.0853C22.3551 18.9607 22.3551 18.8985 22.3551 18.8362Z" fill="white"/>
    </symbol>

    <symbol id="tg-2" viewBox="0 0 30 30">
        <circle cx="15" cy="15" r="15" fill="#BF927A"/>
        <path d="M7.94561 14.9623L10.9841 16.0953L12.1685 19.9062C12.22 20.1637 12.529 20.2152 12.735 20.0607L14.4345 18.6702C14.589 18.5157 14.8465 18.5157 15.0525 18.6702L18.0909 20.8847C18.2969 21.0392 18.6059 20.9362 18.6574 20.6787L20.9233 9.86395C20.9748 9.60646 20.7173 9.34897 20.4598 9.45196L7.94561 14.2929C7.63662 14.3958 7.63662 14.8593 7.94561 14.9623ZM12.014 15.5288L17.9879 11.8724C18.0909 11.8209 18.1939 11.9754 18.0909 12.0269L13.1985 16.6103C13.044 16.7648 12.8895 16.9708 12.8895 17.2283L12.735 18.4643C12.735 18.6187 12.4775 18.6702 12.426 18.4643L11.808 16.1983C11.6535 15.9408 11.7565 15.6318 12.014 15.5288Z" fill="white"/>
    </symbol>

    <symbol id="padding-arrow" viewBox="0 0 24 24">
        <path d="M16.0303 4.46967C16.2966 4.73594 16.3208 5.1526 16.1029 5.44621L16.0303 5.53033L9.561 12L16.0303 18.4697C16.2966 18.7359 16.3208 19.1526 16.1029 19.4462L16.0303 19.5303C15.7641 19.7966 15.3474 19.8208 15.0538 19.6029L14.9697 19.5303L7.96967 12.5303C7.7034 12.2641 7.6792 11.8474 7.89705 11.5538L7.96967 11.4697L14.9697 4.46967C15.2626 4.17678 15.7374 4.17678 16.0303 4.46967Z"/>
    </symbol>

    <symbol id="arrow-table" viewBox="0 0 24 24">
        <path d="M4.46967 7.96967C4.73594 7.7034 5.1526 7.6792 5.44621 7.89705L5.53033 7.96967L12 14.439L18.4697 7.96967C18.7359 7.7034 19.1526 7.6792 19.4462 7.89705L19.5303 7.96967C19.7966 8.23594 19.8208 8.6526 19.6029 8.94621L19.5303 9.03033L12.5303 16.0303C12.2641 16.2966 11.8474 16.3208 11.5538 16.1029L11.4697 16.0303L4.46967 9.03033C4.17678 8.73744 4.17678 8.26256 4.46967 7.96967Z" fill="#119C59"/>
    </symbol>

    <symbol id="cancel" viewBox="0 0 20 20">
        <g clip-path="url(#clip0_45_49716)">
            <path d="M11.1049 10.0008L19.7712 1.33445C20.0763 1.02933 20.0763 0.534647 19.7712 0.22957C19.4661 -0.0755076 18.9714 -0.0755467 18.6663 0.22957L9.99999 8.89588L1.33372 0.22957C1.0286 -0.0755467 0.533915 -0.0755467 0.228837 0.22957C-0.0762401 0.534686 -0.0762792 1.02937 0.228837 1.33445L8.89511 10.0007L0.228837 18.667C-0.0762792 18.9721 -0.0762792 19.4668 0.228837 19.7719C0.381376 19.9244 0.581337 20.0007 0.781297 20.0007C0.981258 20.0007 1.18118 19.9244 1.33376 19.7719L9.99999 11.1056L18.6663 19.7719C18.8188 19.9244 19.0188 20.0007 19.2187 20.0007C19.4187 20.0007 19.6186 19.9244 19.7712 19.7719C20.0763 19.4668 20.0763 18.9721 19.7712 18.667L11.1049 10.0008Z" fill="#F01445"/>
        </g>
        <defs>
            <clipPath id="clip0_45_49716">
                <rect width="20" height="20" fill="white"/>
            </clipPath>
        </defs>
    </symbol>

    <symbol id="burger" viewBox="0 0 30 30">
        <path d="M28.56 22.5098H1.44C0.64471 22.5098 0 23.1545 0 23.9498C0 24.7451 0.644711 25.3898 1.44 25.3898H28.56C29.3553 25.3898 30 24.7451 30 23.9498C30 23.1545 29.3553 22.5098 28.56 22.5098Z" fill="#2A353D"/>
        <path d="M28.56 13.6299H1.44C0.64471 13.6299 0 14.2746 0 15.0699C0 15.8652 0.644711 16.5099 1.44 16.5099H28.56C29.3553 16.5099 30 15.8652 30 15.0699C30 14.2746 29.3553 13.6299 28.56 13.6299Z" fill="#2A353D"/>
        <path d="M28.56 4.75H1.44C0.64471 4.75 0 5.39471 0 6.19C0 6.98529 0.644711 7.63 1.44 7.63H28.56C29.3553 7.63 30 6.98529 30 6.19C30 5.39471 29.3553 4.75 28.56 4.75Z" fill="#2A353D"/>
    </symbol>

    <symbol id="close-side" viewBox="0 0 16 18">
        <line y1="-0.75" x2="21.8279" y2="-0.75" transform="matrix(-0.680221 0.733007 -0.729097 -0.68441 14.8477 0)" stroke="#E7ECEB" stroke-width="1.5"/>
        <line y1="-0.75" x2="21.8279" y2="-0.75" transform="matrix(0.680221 0.733007 0.729097 -0.68441 1.15283 0)" stroke="#E7ECEB" stroke-width="1.5"/>
    </symbol>

    <symbol id="arrow-sm" viewBox="0 0 8 8">
        <path d="M4.31216 6.50591L7.8722 2.94581C7.9546 2.86347 8 2.75355 8 2.63635C8 2.51915 7.9546 2.40923 7.8722 2.32689L7.61008 2.06471C7.43929 1.89411 7.1617 1.89411 6.99116 2.06471L4.00166 5.05422L1.00884 2.0614C0.926432 1.97906 0.816579 1.93359 0.699441 1.93359C0.582174 1.93359 0.472322 1.97906 0.389851 2.0614L0.127804 2.32357C0.0453982 2.40598 4.76837e-07 2.51583 4.76837e-07 2.63304C4.76837e-07 2.75024 0.0453982 2.86016 0.127804 2.9425L3.69109 6.50591C3.77376 6.58845 3.88413 6.63378 4.00146 6.63352C4.11925 6.63378 4.22956 6.58845 4.31216 6.50591Z" fill="#119C59"/>
    </symbol>

    <symbol id="big-check" viewBox="0 0 80 80">
        <path d="M11.7622 68.2362C15.4277 71.9016 19.6975 74.7798 24.4534 76.7915C29.3802 78.8753 34.6103 79.9318 39.9985 79.9318C45.3866 79.9318 50.6168 78.8753 55.5437 76.7915C60.2994 74.7798 64.5693 71.9014 68.2349 68.2362C71.9002 64.5706 74.7788 60.3008 76.7901 55.545C78.874 50.6181 79.9307 45.3879 79.9307 40C79.9307 34.6116 78.874 29.3816 76.7901 24.4548C74.7788 19.699 71.9001 15.4292 68.2349 11.7637C64.5693 8.09824 60.2995 5.21983 55.5437 3.20836C50.6166 1.12436 45.3866 0.0678711 39.9985 0.0678711C34.6103 0.0678711 29.3802 1.1245 24.4534 3.20836C19.6975 5.21983 15.4277 8.09838 11.7622 11.7637C8.09678 15.4291 5.21837 19.699 3.20676 24.4547C1.12303 29.3816 0.0664062 34.6116 0.0664062 40C0.0664062 45.388 1.12303 50.6181 3.2069 55.545C5.21837 60.3008 8.09691 64.5706 11.7622 68.2362ZM39.9985 5.89736C58.8329 5.89736 74.101 21.1656 74.101 40C74.101 58.8342 58.8329 74.1023 39.9985 74.1023C21.1641 74.1023 5.89589 58.8342 5.89589 40C5.89589 21.1656 21.1641 5.89736 39.9985 5.89736Z" fill="#119C59"/>
        <path d="M40.0001 80C34.6024 80 29.3635 78.9416 24.4284 76.8543C19.6644 74.8392 15.3873 71.9559 11.7158 68.2844C8.04411 64.6125 5.16081 60.3353 3.14593 55.5715C1.0584 50.6362 0 45.3972 0 40.0001C0 34.603 1.0584 29.3638 3.1458 24.4283C5.16067 19.6646 8.04411 15.3874 11.7157 11.7157C15.3873 8.04398 19.6646 5.16067 24.4283 3.1458C29.3638 1.0584 34.6028 0 40 0C45.3976 0 50.6366 1.0584 55.5715 3.14593C60.3354 5.16081 64.6125 8.04425 68.2844 11.7158C71.9563 15.3878 74.8396 19.665 76.8543 24.4284C78.9419 29.3639 80.0003 34.603 80.0003 40.0001C80.0003 45.3972 78.9419 50.6362 76.8543 55.5717C74.8396 60.3353 71.9564 64.6124 68.2844 68.2846C64.6128 71.9559 60.3356 74.8392 55.5715 76.8545C50.6366 78.9416 45.3976 80 40.0001 80ZM40.0001 0.136076C34.6212 0.136076 29.4001 1.1908 24.4815 3.27112C19.734 5.27919 15.4713 8.1527 11.8121 11.8119C8.1527 15.4713 5.27919 19.7338 3.27112 24.4812C1.1908 29.4 0.136076 34.6212 0.136076 40.0001C0.136076 45.3788 1.1908 50.6002 3.27112 55.5187C5.27919 60.2663 8.1527 64.5289 11.8121 68.1882C15.4711 71.8472 19.7337 74.7207 24.4815 76.729C29.3996 78.8092 34.6208 79.8639 40.0001 79.8639C45.3795 79.8639 50.6006 78.8092 55.5187 76.7289C60.2664 74.7207 64.5291 71.8472 68.1882 68.1882C71.8477 64.5285 74.7211 60.2659 76.7289 55.5187C78.8093 50.6002 79.8642 45.3789 79.8642 40.0001C79.8642 34.6212 78.8093 29.4 76.7289 24.4815C74.7212 19.7342 71.8477 15.4717 68.1882 11.8121C64.5289 8.15284 60.2662 5.27933 55.5187 3.27126C50.6004 1.1908 45.3792 0.136076 40.0001 0.136076ZM40.0001 74.1705C30.8729 74.1705 22.2918 70.6162 15.8378 64.1623C9.38392 57.7082 5.82948 49.1274 5.82948 40.0001C5.82948 30.8729 9.38378 22.2918 15.8378 15.8379C22.2918 9.38392 30.8729 5.82948 40.0001 5.82948C49.1274 5.82948 57.7083 9.38392 64.1623 15.8379C70.6163 22.2919 74.1706 30.8729 74.1706 40.0001C74.1706 49.1274 70.6163 57.7083 64.1623 64.1623C57.7083 70.6162 49.1273 74.1705 40.0001 74.1705ZM40.0001 5.96556C30.9092 5.96556 22.3624 9.50584 15.9341 15.9341C9.50584 22.3624 5.96556 30.9092 5.96556 40.0001C5.96556 49.0911 9.50584 57.6379 15.9341 64.0659C22.3623 70.4942 30.9092 74.0344 40.0001 74.0344C49.0911 74.0344 57.6379 70.4942 64.0661 64.0659C70.4943 57.6379 74.0346 49.0909 74.0346 40.0001C74.0346 30.9092 70.4943 22.3623 64.0661 15.9341C57.6377 9.5057 49.0911 5.96556 40.0001 5.96556Z" fill="#119C59"/>
        <path d="M31.1605 56.1068C31.7071 56.6535 32.4484 56.9604 33.2215 56.9604C33.9947 56.9604 34.7359 56.6534 35.2825 56.1068L60.2369 31.1525C61.3751 30.0142 61.3751 28.1688 60.2369 27.0305C59.0986 25.8922 57.253 25.8921 56.1147 27.0305L33.2215 49.9239L23.8859 40.5881C22.7476 39.4497 20.9021 39.4497 19.7639 40.5881C18.6256 41.7264 18.6256 43.5719 19.7639 44.7101L31.1605 56.1068Z" fill="#119C59"/>
        <path d="M33.2217 57.0287C32.425 57.0287 31.6759 56.7184 31.1125 56.1551L19.7159 44.7585C18.553 43.5954 18.553 41.7032 19.7159 40.5401C20.2793 39.9766 21.0284 39.6664 21.8251 39.6664C22.6218 39.6664 23.3708 39.9766 23.9343 40.5401L33.2218 49.8277L56.0669 26.9825C56.6303 26.419 57.3794 26.1089 58.1761 26.1089C58.9727 26.1089 59.7218 26.4191 60.2853 26.9825C60.8487 27.5458 61.159 28.2949 61.159 29.0917C61.159 29.8884 60.8487 30.6374 60.2853 31.2008L35.3309 56.1551C34.7677 56.7184 34.0186 57.0287 33.2217 57.0287ZM21.8251 39.8026C21.0647 39.8026 20.3499 40.0987 19.8123 40.6365C18.7024 41.7464 18.7024 43.5523 19.8123 44.6623L31.2089 56.0589C31.7465 56.5965 32.4613 56.8926 33.2217 56.8926C33.9822 56.8926 34.697 56.5965 35.2347 56.0589L60.1889 31.1046C60.7266 30.567 61.0228 29.8521 61.0228 29.0918C61.0228 28.3315 60.7266 27.6165 60.1889 27.0788C59.6513 26.5411 58.9363 26.2451 58.176 26.2451C57.4156 26.2451 56.7006 26.5412 56.163 27.0788L33.2217 50.0202L23.8379 40.6365C23.3003 40.0987 22.5855 39.8026 21.8251 39.8026Z" fill="#119C59"/>
    </symbol>
</svg>
